<svg width="35" height="26" viewBox="0 0 35 26" fill="none" xmlns="http://www.w3.org/2000/svg">
<g clip-path="url(#clip0_16_2)">
<mask id="mask0_16_2" style="mask-type:luminance" maskUnits="userSpaceOnUse" x="0" y="0" width="35" height="26">
<path d="M35 0H0V26H35V0Z" fill="white"/>
</mask>
<g mask="url(#mask0_16_2)">
<mask id="mask1_16_2" style="mask-type:luminance" maskUnits="userSpaceOnUse" x="0" y="0" width="35" height="26">
<path d="M35 0H0V26H35V0Z" fill="white"/>
</mask>
<g mask="url(#mask1_16_2)">
<path d="M33 0.5H2C1.17157 0.5 0.5 1.17157 0.5 2V24C0.5 24.8284 1.17157 25.5 2 25.5H33C33.8284 25.5 34.5 24.8284 34.5 24V2C34.5 1.17157 33.8284 0.5 33 0.5Z" stroke="black" stroke-opacity="0.26"/>
</g>
<mask id="mask2_16_2" style="mask-type:luminance" maskUnits="userSpaceOnUse" x="7" y="2" width="22" height="22">
<path d="M29 2H7V24H29V2Z" fill="white"/>
</mask>
<g mask="url(#mask2_16_2)">
<path d="M20.9368 6.7002C20.6223 6.83663 20.31 7.00418 20.0093 7.19841L19.9062 7.26508L20.6877 8.01427L20.7541 7.96914C20.9306 7.84946 21.1243 7.7438 21.3443 7.64361C22.2707 7.23363 23.4729 7.23363 24.4055 7.64361C24.6197 7.74448 24.8141 7.85151 24.9999 7.97119L25.0663 8.01427L25.835 7.26508L25.7319 7.19841C25.4153 6.99358 25.1147 6.8298 24.8134 6.7002C23.6548 6.21191 22.0954 6.21191 20.9368 6.7002Z" fill="#021752"/>
<path d="M17.5332 4.8371H17.5364C18.1663 4.34095 18.8426 3.94772 19.6054 3.63519C21.616 2.79504 24.1237 2.79504 26.1444 3.63519C26.9151 3.95593 27.6084 4.35976 28.2037 4.8371L28.2712 4.89216L29.0001 4.19597L28.914 4.12621C28.1968 3.54765 27.3984 3.07133 26.5384 2.71059C24.2739 1.76444 21.4628 1.76444 19.2 2.71059C18.3299 3.0792 17.5305 3.55586 16.8244 4.12621L16.7383 4.19597L17.4654 4.89113L17.5332 4.8371Z" fill="#021752"/>
<path d="M11.383 19.0674C10.9544 19.0674 10.6074 19.4114 10.6074 19.834C10.6074 20.2566 10.9554 20.6017 11.383 20.6017C11.8106 20.6017 12.1586 20.2566 12.1586 19.834C12.1586 19.4114 11.8106 19.0674 11.383 19.0674Z" fill="#021752"/>
<path d="M15.8566 19.0674C15.428 19.0674 15.0811 19.4114 15.0811 19.834C15.0811 20.2566 15.4291 20.6017 15.8566 20.6017C16.2842 20.6017 16.6322 20.2566 16.6322 19.834C16.6322 19.4114 16.2842 19.0674 15.8566 19.0674Z" fill="#021752"/>
<path d="M20.3205 19.0674C19.8919 19.0674 19.5449 19.4114 19.5449 19.834C19.5449 20.2566 19.8929 20.6017 20.3205 20.6017C20.7481 20.6017 21.0961 20.2566 21.0961 19.834C21.0961 19.4114 20.7481 19.0674 20.3205 19.0674Z" fill="#021752"/>
<path d="M27.1361 15.5684H23.3667V10.666H22.2756V15.5684H8.3886C7.59502 15.5684 7 16.1565 7 16.9409V22.6277C7 23.4121 7.59502 24.0003 8.3886 24.0003H27.1361C27.9297 24.0003 28.5247 23.4121 28.5247 22.6277V16.9409C28.5247 16.1565 27.9297 15.5684 27.1361 15.5684ZM27.4336 22.3337C27.4336 22.7259 27.1361 23.0199 26.7393 23.0199H8.78539C8.3886 23.0199 8.09109 22.7259 8.09109 22.3337V17.3335C8.09109 16.9413 8.3886 16.6472 8.78539 16.6472H26.7393C27.1361 16.6472 27.4336 16.9413 27.4336 17.3335V22.3337Z" fill="#021752"/>
</g>
</g>
</g>
<defs>
<clipPath id="clip0_16_2">
<rect width="35" height="26" fill="white"/>
</clipPath>
</defs>
</svg>
