<svg width="26" height="26" viewBox="0 0 26 26" fill="none" xmlns="http://www.w3.org/2000/svg">
<path d="M3.57373 25C2.86595 25 2.26005 24.7526 1.75603 24.2579C1.25201 23.7632 1 23.1684 1 22.4737V17.4211C1 16.7263 1.25201 16.1316 1.75603 15.6368C2.26005 15.1421 2.86595 14.8947 3.57373 14.8947H16.4424V9.8421H19.0161V14.8947H21.5898C22.2976 14.8947 22.9035 15.1421 23.4075 15.6368C23.9115 16.1316 24.1635 16.7263 24.1635 17.4211V22.4737C24.1635 23.1684 23.9115 23.7632 23.4075 24.2579C22.9035 24.7526 22.2976 25 21.5898 25H3.57373ZM3.57373 22.4737H21.5898V17.4211H3.57373V22.4737ZM7.06434 20.8474C7.31099 20.6053 7.43432 20.3053 7.43432 19.9474C7.43432 19.5895 7.31099 19.2895 7.06434 19.0474C6.81769 18.8053 6.51206 18.6842 6.14745 18.6842C5.78284 18.6842 5.47721 18.8053 5.23056 19.0474C4.98391 19.2895 4.86059 19.5895 4.86059 19.9474C4.86059 20.3053 4.98391 20.6053 5.23056 20.8474C5.47721 21.0895 5.78284 21.2105 6.14745 21.2105C6.51206 21.2105 6.81769 21.0895 7.06434 20.8474ZM11.5684 20.8474C11.815 20.6053 11.9383 20.3053 11.9383 19.9474C11.9383 19.5895 11.815 19.2895 11.5684 19.0474C11.3217 18.8053 11.0161 18.6842 10.6515 18.6842C10.2869 18.6842 9.98123 18.8053 9.73458 19.0474C9.48794 19.2895 9.36461 19.5895 9.36461 19.9474C9.36461 20.3053 9.48794 20.6053 9.73458 20.8474C9.98123 21.0895 10.2869 21.2105 10.6515 21.2105C11.0161 21.2105 11.3217 21.0895 11.5684 20.8474ZM16.0724 20.8474C16.319 20.6053 16.4424 20.3053 16.4424 19.9474C16.4424 19.5895 16.319 19.2895 16.0724 19.0474C15.8257 18.8053 15.5201 18.6842 15.1555 18.6842C14.7909 18.6842 14.4853 18.8053 14.2386 19.0474C13.992 19.2895 13.8686 19.5895 13.8686 19.9474C13.8686 20.3053 13.992 20.6053 14.2386 20.8474C14.4853 21.0895 14.7909 21.2105 15.1555 21.2105C15.5201 21.2105 15.8257 21.0895 16.0724 20.8474ZM15.4772 8.89474L13.6113 7.06316C14.1689 6.55789 14.7909 6.15789 15.4772 5.86316C16.1635 5.56842 16.9142 5.42105 17.7292 5.42105C18.5442 5.42105 19.2949 5.56842 19.9812 5.86316C20.6676 6.15789 21.2895 6.55789 21.8472 7.06316L19.9812 8.89474C19.681 8.6 19.3432 8.36842 18.9678 8.2C18.5925 8.03158 18.1796 7.94737 17.7292 7.94737C17.2788 7.94737 16.866 8.03158 16.4906 8.2C16.1153 8.36842 15.7775 8.6 15.4772 8.89474ZM12.2601 5.73684L10.4584 3.96842C11.4021 3.04211 12.496 2.31579 13.7399 1.78947C14.9839 1.26316 16.3137 1 17.7292 1C19.1448 1 20.4745 1.26316 21.7185 1.78947C22.9625 2.31579 24.0563 3.04211 25 3.96842L23.1984 5.73684C22.4906 5.04211 21.6702 4.5 20.7373 4.11053C19.8043 3.72105 18.8016 3.52632 17.7292 3.52632C16.6568 3.52632 15.6542 3.72105 14.7212 4.11053C13.7882 4.5 12.9678 5.04211 12.2601 5.73684Z" fill="#021752"/>
</svg>
